# xmcd
#
# Track frame offsets:
#	150
#	16271
#	29852
#	46185
#	62790
#	78177
#	91903
#	108912
#	124228
#	138018
#	154165
#	171409
#
# Disc length: 2508 seconds
#
# Revision: 0
# Processed by: cddbd v1.5.2PL0 Copyright (c) Steve Scherf et al.
# Submitted via: EasyCDDAExtractor 12.0.1.1
#
DISCID=9609ca0c
DTITLE=Pk and Dansefolket - Livet Lar Skjebna Få Rå
DYEAR=2004
DGENRE=Danseband
TTITLE0=Det Er Lenge Sia No
TTITLE1=Ta Meg Med
TTITLE2=Livet Lar Skjebna Få Rå
TTITLE3=Glad I Deg
TTITLE4=Kanskje Du Ikkje Vil
TTITLE5=Ei Høne Å Plukke
TTITLE6=Tjuv Ja Tjuv
TTITLE7=Campingvogn Med Boogie
TTITLE8=B.M.: Kjærlighet
TTITLE9=Heilt Te Neste Møte
TTITLE10=Bobby Mcgee
TTITLE11=Minnene Om Deg
EXTD=
EXTT0=
EXTT1=
EXTT2=
EXTT3=
EXTT4=
EXTT5=
EXTT6=
EXTT7=
EXTT8=
EXTT9=
EXTT10=
EXTT11=
PLAYORDER=
